<?xml version="1.0" standalone="no"?>
<!DOCTYPE svg PUBLIC "-//W3C//DTD SVG 20010904//EN"
 "http://www.w3.org/TR/2001/REC-SVG-20010904/DTD/svg10.dtd">
<svg version="1.0" xmlns="http://www.w3.org/2000/svg"
 width="344.000000pt" height="344.000000pt" viewBox="0 0 344.000000 344.000000"
 preserveAspectRatio="xMidYMid meet">

<g transform="translate(0.000000,344.000000) scale(0.100000,-0.100000)"
fill="#000000" stroke="none">
<path d="M1565 3423 c-63 -7 -221 -46 -282 -69 -172 -65 -304 -153 -443 -294
-270 -274 -392 -644 -336 -1016 14 -97 54 -244 66 -244 4 0 24 29 45 65 142
241 386 442 664 545 269 99 603 100 873 4 432 -154 757 -535 835 -979 78 -443
-105 -924 -455 -1197 -94 -72 -95 -74 -26 -40 160 80 372 246 496 388 262 300
409 668 425 1064 20 497 -164 954 -524 1300 -132 128 -247 210 -401 288 -257
131 -515 193 -787 190 -66 0 -133 -3 -150 -5z"/>
<path d="M911 3229 c-454 -247 -771 -679 -871 -1184 -28 -140 -37 -376 -21
-511 50 -409 225 -762 518 -1044 133 -128 247 -210 403 -290 422 -215 903
-249 1269 -91 321 138 565 403 676 733 62 186 79 371 50 558 -12 83 -47 218
-62 244 -3 4 -17 -14 -32 -40 -159 -290 -466 -525 -798 -610 -450 -114 -917
15 -1243 345 -261 264 -394 627 -360 986 12 126 21 165 62 292 73 227 221 440
407 585 108 84 108 85 2 27z"/>
</g>
</svg>
